<svg width="300" height="72" viewBox="0 0 300 72" fill="none" xmlns="http://www.w3.org/2000/svg">
<path style="mix-blend-mode:multiply" d="M34.5677 4.16898C17.3441 4.16898 3.33237 18.3554 3.33237 35.7936C3.33237 53.2348 17.3441 67.4213 34.5677 67.4213C51.7941 67.4213 65.803 53.2348 65.803 35.7966C65.803 18.3554 51.7941 4.16898 34.5677 4.16898Z" fill="url(#paint0_linear_18_56)"/>
<path d="M7.88824 45.6265C9.5 50.117 15.2647 52.5053 22.8118 52.5053C27.8 52.5053 33.5647 51.463 39.4294 49.3011C54.1676 43.8725 63.9441 33.4203 61.2559 25.9608H61.2618C58.6333 18.8649 53.3448 13.1062 46.5457 9.93645C39.7467 6.7667 31.9867 6.44214 24.9526 9.03331C17.9185 11.6245 12.1788 16.9219 8.98126 23.7741C5.78369 30.6264 5.38666 38.4795 7.87647 45.6265H7.88824Z" fill="white"/>
<path d="M58.9353 40.3706C54.5147 45.0964 47.9353 49.2326 40.3971 52.002C34.4059 54.2116 28.3206 55.3789 22.8088 55.3789C18.6441 55.3789 15.0559 54.7118 12.1794 53.4731C14.8315 56.922 18.2264 59.7122 22.1053 61.6309C25.9842 63.5497 30.2447 64.5462 34.5618 64.5447C50.2441 64.5447 62.9618 51.6715 62.9618 35.7936C62.9604 35.448 62.9506 35.1025 62.9324 34.7573C61.9941 36.6274 60.6618 38.5094 58.9294 40.3646L58.9353 40.3706Z" fill="white"/>
<path d="M22.8118 52.5023C24.7235 52.5023 26.7471 52.3474 28.8441 52.0377L28.7412 52.002C21.2059 49.2237 14.6235 45.0934 10.2029 40.3706C8.46764 38.5124 7.13235 36.6304 6.20293 34.7633C6.18529 35.1067 6.17548 35.4512 6.17352 35.7966C6.17352 39.2509 6.77352 42.5652 7.87646 45.6294H7.88235C9.49411 50.12 15.2588 52.5023 22.8059 52.5023H22.8118Z" fill="url(#paint1_linear_18_56)"/>
<path d="M34.5676 53.8006C30.5265 54.8309 26.5382 55.3789 22.8059 55.3789C18.6441 55.3789 15.0559 54.7089 12.1794 53.4731C14.8318 56.9214 18.2268 59.7111 22.1057 61.6293C25.9846 63.5475 30.2449 64.5436 34.5618 64.5417C38.8786 64.5436 43.1389 63.5475 47.0178 61.6293C50.8967 59.7111 54.2918 56.9214 56.9441 53.4731C54.0706 54.7148 50.4882 55.3789 46.3206 55.3789C42.5941 55.3789 38.6 54.8309 34.5618 53.8006H34.5676Z" fill="url(#paint2_linear_18_56)"/>
<path d="M89.4706 47.1303L94.7735 41.5855C96.6294 45.6443 100.209 46.8623 104.715 46.8623C108.626 46.8623 110.815 45.6413 110.815 43.8189C110.815 42.2615 109.026 41.3175 104.185 40.3051C93.8412 38.2027 90.3941 34.9628 90.3941 29.3466C90.3941 23.7334 95.4971 18.4567 105.312 18.4567C112.935 18.4567 117.044 20.7555 120.094 25.6303L114.462 30.4961C112.541 26.9822 109.888 25.2193 105.441 25.2193C101.726 25.2193 99.4765 26.7082 99.4765 28.4681C99.4765 30.2281 101.132 31.44 106.7 32.5954C116.379 34.5549 119.959 37.5357 119.959 43.1489C119.959 49.2356 114.724 53.6309 104.841 53.6309C98.0118 53.6309 92.5088 51.737 89.4647 47.1362L89.4706 47.1303ZM198.738 30.7611V52.943H189.659V33.465C189.659 27.6463 187.206 25.7553 183.762 25.7553C179.915 25.7553 176.138 28.3282 176.138 35.0909V52.943H167.056V4.31787H176.138V24.8739C178.256 20.5471 182.103 18.4477 186.815 18.4477C193.706 18.4477 198.744 22.575 198.744 30.7551L198.738 30.7611ZM236.432 39.5517H212.962C213.885 44.4175 216.806 46.7223 221.247 46.7223C225.094 46.7223 227.615 45.2334 228.541 42.5295L235.962 45.3049C233.844 50.7156 228.738 53.6249 221.247 53.6249C210.241 53.6249 204.012 47.1303 204.012 36.0408C204.012 24.9543 210.047 18.4567 220.718 18.4567C231.388 18.4567 236.694 24.8114 236.694 35.9068C236.694 36.8508 236.565 38.6821 236.429 39.5576L236.432 39.5517ZM212.897 33.054H228.344C227.615 27.9798 224.829 25.2759 220.653 25.2759C216.476 25.2759 213.624 27.9113 212.897 33.051M264.4 19.1981L263.274 27.3127C262.347 26.7082 260.824 26.3003 259.097 26.3003C255.118 26.3003 251.141 29.2722 251.141 35.4274V52.949H242.059V19.1267H249.953V25.7583C251.679 21.095 255.65 18.4537 260.824 18.4537C262.279 18.4537 263.606 18.7217 264.4 19.1981ZM298.415 39.5517H274.944C275.871 44.4175 278.791 46.7223 283.229 46.7223C287.076 46.7223 289.597 45.2334 290.524 42.5295L297.947 45.3049C295.826 50.7156 290.724 53.6249 283.229 53.6249C272.224 53.6249 265.994 47.1303 265.994 36.0408C265.994 24.9543 272.029 18.4567 282.7 18.4567C293.371 18.4567 298.676 24.8114 298.676 35.9068C298.676 36.8508 298.547 38.6821 298.415 39.5576V39.5517ZM274.882 33.054H290.329C289.597 27.9798 286.815 25.2759 282.635 25.2759C278.459 25.2759 275.606 27.9113 274.882 33.051M161.609 35.9723C161.609 47.0588 154.297 53.6249 145.55 53.6249C140.647 53.6249 136.435 51.1236 134.518 47.3328V67.1503H125.435V19.1267H134.518V24.9156C136.374 20.5888 140.247 18.4537 145.547 18.4537C154.368 18.4537 161.609 24.9454 161.609 35.9723ZM153.085 36.0408C153.085 29.1441 148.294 25.5588 143.453 25.5588C138.612 25.5588 134.512 29.1441 134.512 35.7043V36.3803C134.512 42.8035 138.676 46.5228 143.453 46.5228C148.229 46.5228 153.085 42.9375 153.085 36.0408Z" fill="#0F2A43"/>
<defs>
<linearGradient id="paint0_linear_18_56" x1="13.6412" y1="13.5283" x2="57.3554" y2="64.5197" gradientUnits="userSpaceOnUse">
<stop stop-color="#2C61F9"/>
<stop offset="1" stop-color="#1DCBFA"/>
</linearGradient>
<linearGradient id="paint1_linear_18_56" x1="31.5588" y1="34.7633" x2="31.5588" y2="64.5417" gradientUnits="userSpaceOnUse">
<stop stop-color="#27D8FF"/>
<stop offset="1" stop-color="white"/>
</linearGradient>
<linearGradient id="paint2_linear_18_56" x1="31.5588" y1="34.7633" x2="31.5588" y2="64.5417" gradientUnits="userSpaceOnUse">
<stop stop-color="#27D8FF"/>
<stop offset="1" stop-color="white"/>
</linearGradient>
</defs>
</svg>
